#N canvas -19 0 1697 940 12;
#X obj 770 912 dac~;
#X msg 35 61 \; pd dsp \$1;
#X obj 33 13 tgl 15 0 empty empty empty 17 7 0 10 -262144 -1 -1 0 1
;
#X obj 792 816 line;
#X obj 774 845 *~;
#X obj 846 777 delay 20;
#X msg 848 810 0 80;
#X obj 703 774 noise~;
#X obj 1009 707 hradio 15 1 0 4 empty empty empty 0 -8 0 10 -262144
-1 -1 0;
#X obj 1017 542 tgl 15 0 empty empty empty 17 7 0 10 -262144 -1 -1
0 1;
#X obj 1014 643 f;
#X obj 1054 644 + 1;
#X obj 1017 501 bng 15 250 50 0 empty empty empty 17 7 0 10 -262144
-1 -1;
#X obj 980 944 dac~;
#X obj 1002 848 line;
#X obj 984 877 *~;
#X obj 1056 809 delay 20;
#X obj 914 806 noise~;
#X obj 1199 954 dac~;
#X obj 1221 858 line;
#X obj 1203 887 *~;
#X obj 1275 819 delay 20;
#X msg 1277 852 0 80;
#X obj 1133 816 noise~;
#X obj 1417 952 dac~;
#X obj 1439 856 line;
#X obj 1421 885 *~;
#X obj 1493 817 delay 20;
#X obj 1351 814 noise~;
#X obj 636 843 dac~;
#X obj 652 726 line;
#X obj 634 755 *~;
#X msg 650 682 1 100;
#X obj 525 678 noise~;
#X obj 661 617 bng 15 250 50 0 empty empty empty 17 7 0 10 -262144
-1 -1;
#X obj 526 716 bp~ 2000 2;
#X msg 708 720 0 100;
#X obj 706 687 delay 20;
#X msg 1058 842 0 110;
#X msg 1495 850 0 110;
#X obj 1014 677 mod 4;
#X obj 1008 737 select 0 1 2 3;
#X obj 1597 687 *~;
#X obj 1679 519 osc~;
#X obj 1807 377 random 100;
#X obj 1679 441 / 100;
#X obj 1679 470 / 5;
#X obj 1679 390 bng 15 250 50 0 empty empty empty 17 7 0 10 -262144
-1 -1;
#X obj 1597 813 *~;
#X obj 1666 813 *~;
#X obj 1737 685 osc~ 0.05;
#X obj 1738 762 *~ -1;
#X obj 1729 320 metro 5000;
#X obj 1672 747 *~ 0.5;
#X obj 1744 795 *~ 0.5;
#X obj 1730 192 tgl 15 0 empty empty empty 17 7 0 10 -262144 -1 -1
0 1;
#X obj 1467 450 noise~;
#X obj 1619 839 dac~;
#X obj 1555 497 vcf~;
#X obj 1522 426 sig~;
#X msg 1567 361 0.5;
#X msg 1505 364 20;
#X obj 1494 289 loadbang;
#X floatatom 18 184 5 0 0 0 - - -;
#N canvas 20 71 1181 601 oscReceive 0;
#X obj 55 184 netreceive -u -b;
#X msg 78 143 listen 0;
#X text 152 143 stop listening;
#X text 64 58 packets from network;
#X text 173 177 UDP packets \, binary output, f 13;
#X obj 45 314 print;
#X obj 45 272 oscparse;
#X text 150 114 listen on port 8000;
#X obj 177 269 oscparse;
#X obj 177 293 list trim;
#X floatatom 140 380 5 0 0 0 - - -;
#X text 241 267 Parse the OSC message;
#X obj 178 321 route unity;
#X obj 139 357 route trigger;
#X obj 140 407 s osctrig;
#X msg 66 115 listen 8000;
#X obj 66 84 loadbang;
#X floatatom 244 382 5 0 0 0 - - -;
#X obj 243 359 route tempo;
#X obj 244 409 s osctempo;
#X floatatom 339 382 5 0 0 0 - - -;
#X obj 338 359 route playseq;
#X obj 339 409 s oscplayseq;
#X floatatom 437 382 5 0 0 0 - - -;
#X obj 436 359 route colwall;
#X obj 437 409 s oscwall;
#X floatatom 548 383 5 0 0 0 - - -;
#X obj 547 360 route water;
#X obj 548 410 s water;
#X floatatom 638 385 5 0 0 0 - - -;
#X obj 636 362 route sand;
#X obj 638 412 s sand;
#X floatatom 718 386 5 0 0 0 - - -;
#X obj 716 363 route speed;
#X obj 718 413 s speed;
#X floatatom 807 385 5 0 0 0 - - -;
#X floatatom 898 385 5 0 0 0 - - -;
#X obj 805 362 route hard;
#X obj 807 412 s hard;
#X obj 896 362 route sometih;
#X obj 898 412 s something;
#X floatatom 1004 384 5 0 0 0 - - -;
#X obj 1002 361 route sand2;
#X obj 1004 411 s sand2;
#X floatatom 1090 381 5 0 0 0 - - -;
#X obj 1088 358 route deep;
#X obj 1090 408 s deep;
#X floatatom 1166 381 5 0 0 0 - - -;
#X obj 1164 358 route swim;
#X obj 1166 408 s swim;
#X floatatom 142 458 5 0 0 0 - - -;
#X obj 140 435 route deeper;
#X obj 142 485 s deeper;
#X floatatom 240 465 5 0 0 0 - - -;
#X obj 238 442 route deepest;
#X obj 240 492 s deepest;
#X floatatom 351 466 5 0 0 0 - - -;
#X obj 349 443 route paddle;
#X obj 351 493 s paddle;
#X connect 0 0 6 0;
#X connect 0 0 8 0;
#X connect 1 0 0 0;
#X connect 6 0 5 0;
#X connect 8 0 9 0;
#X connect 9 0 12 0;
#X connect 10 0 14 0;
#X connect 12 0 13 0;
#X connect 12 0 18 0;
#X connect 12 0 21 0;
#X connect 12 0 24 0;
#X connect 12 0 27 0;
#X connect 12 0 30 0;
#X connect 12 0 33 0;
#X connect 12 0 37 0;
#X connect 12 0 39 0;
#X connect 12 0 42 0;
#X connect 12 0 45 0;
#X connect 12 0 48 0;
#X connect 12 0 51 0;
#X connect 12 0 54 0;
#X connect 12 0 57 0;
#X connect 13 0 10 0;
#X connect 15 0 0 0;
#X connect 16 0 15 0;
#X connect 17 0 19 0;
#X connect 18 0 17 0;
#X connect 20 0 22 0;
#X connect 21 0 20 0;
#X connect 23 0 25 0;
#X connect 24 0 23 0;
#X connect 26 0 28 0;
#X connect 27 0 26 0;
#X connect 29 0 31 0;
#X connect 30 0 29 0;
#X connect 32 0 34 0;
#X connect 33 0 32 0;
#X connect 35 0 38 0;
#X connect 36 0 40 0;
#X connect 37 0 35 0;
#X connect 39 0 36 0;
#X connect 41 0 43 0;
#X connect 42 0 41 0;
#X connect 44 0 46 0;
#X connect 45 0 44 0;
#X connect 47 0 49 0;
#X connect 48 0 47 0;
#X connect 50 0 52 0;
#X connect 51 0 50 0;
#X connect 53 0 55 0;
#X connect 54 0 53 0;
#X connect 56 0 58 0;
#X connect 57 0 56 0;
#X restore 47 142 pd oscReceive;
#X obj 19 268 oscformat PD message;
#X msg 51 229 set PD message;
#N canvas 727 97 450 300 oscSend 0;
#X msg 158 207 disconnect;
#X obj 61 253 netsend -u -b;
#X obj 59 55 list prepend send;
#X obj 59 80 list trim;
#X msg 150 175 connect 127.0.0.1 8001;
#X obj 59 29 r oscOut;
#X text 301 163 send to port 8001;
#X msg 147 148 connect localhost 8001;
#X obj 147 108 loadbang;
#X connect 0 0 1 0;
#X connect 2 0 3 0;
#X connect 3 0 1 0;
#X connect 4 0 1 0;
#X connect 5 0 2 0;
#X connect 7 0 1 0;
#X connect 8 0 7 0;
#X restore 47 118 pd oscSend;
#X obj 19 303 s oscOut;
#X obj 127 1772 dac~;
#X obj 135 1722 *~;
#X floatatom 240 1703 5 0 0 0 - - -;
#X obj 275 1655 loadbang;
#X text 272 1634 Volume;
#X obj 134 1548 bng 15 250 50 0 empty empty empty 17 7 0 10 -262144
-1 -1;
#X text 51 1547 Test Button;
#X obj 904 1091 r oscplayseq;
#X msg 134 1580 open beachday1.wav \, 1;
#X obj 462 1768 dac~;
#X obj 470 1722 *~;
#X obj 469 1544 bng 15 250 50 0 empty empty empty 17 7 0 10 -262144
-1 -1;
#X text 386 1543 Test Button;
#X obj 828 1761 dac~;
#X obj 836 1715 *~;
#X obj 835 1537 bng 15 250 50 0 empty empty empty 17 7 0 10 -262144
-1 -1;
#X text 752 1536 Test Button;
#X obj 1195 1762 dac~;
#X obj 1203 1716 *~;
#X obj 1202 1538 bng 15 250 50 0 empty empty empty 17 7 0 10 -262144
-1 -1;
#X text 1119 1537 Test Button;
#X obj 1566 1761 dac~;
#X obj 1574 1715 *~;
#X obj 1573 1537 bng 15 250 50 0 empty empty empty 17 7 0 10 -262144
-1 -1;
#X text 1490 1536 Test Button;
#X msg 469 1576 open beachday2.wav \, 1;
#X msg 835 1569 open beachday3.wav \, 1;
#X msg 1201 1570 open beachday4.wav \, 1;
#X msg 1573 1569 open beachday5.wav \, 1;
#X obj 200 1701 bng 15 250 50 0 empty empty empty 17 7 0 10 -262144
-1 -1;
#X obj 495 1695 bng 15 250 50 0 empty empty empty 17 7 0 10 -262144
-1 -1;
#X obj 865 1688 bng 15 250 50 0 empty empty empty 17 7 0 10 -262144
-1 -1;
#X obj 1239 1689 bng 15 250 50 0 empty empty empty 17 7 0 10 -262144
-1 -1;
#X obj 1615 1692 bng 15 250 50 0 empty empty empty 17 7 0 10 -262144
-1 -1;
#X obj 395 1636 bng 15 250 50 0 empty empty empty 17 7 0 10 -262144
-1 -1;
#X floatatom 310 1689 5 0 0 0 - - -;
#X obj 469 1660 readsf~;
#X obj 134 1664 readsf~;
#X obj 835 1653 readsf~;
#X obj 1202 1654 readsf~;
#X obj 1573 1654 readsf~;
#X obj 1738 728 *~ 0.1;
#X obj 1678 548 +~ 1;
#X obj 1737 707 +~ 1;
#X floatatom 1763 531 5 0 0 0 - - -;
#X obj 1675 581 *~ 0.1;
#X obj 1772 488 r water;
#X obj 704 815 bp~ 2000 2;
#X obj 1134 857 bp~ 2000 2;
#X obj 234 952 r osctrig;
#X obj 207 1027 hradio 15 1 0 5 empty empty empty 0 -8 0 10 -262144
-1 -1 0;
#X obj 206 1057 select 0 1 2 3 4;
#X obj 199 1114 bng 15 250 50 0 empty empty empty 17 7 0 10 -262144
-1 -1;
#X obj 240 1112 bng 15 250 50 0 empty empty empty 17 7 0 10 -262144
-1 -1;
#X obj 274 1112 bng 15 250 50 0 empty empty empty 17 7 0 10 -262144
-1 -1;
#X obj 306 1113 bng 15 250 50 0 empty empty empty 17 7 0 10 -262144
-1 -1;
#X obj 341 1111 bng 15 250 50 0 empty empty empty 17 7 0 10 -262144
-1 -1;
#X obj 109 1163 s volume1;
#X obj 182 1164 s volume2;
#X obj 257 1169 s volume3;
#X obj 333 1171 s volume4;
#X obj 405 1172 s volume5;
#X floatatom 574 1708 5 0 0 0 - - -;
#X obj 618 1637 loadbang;
#X text 608 1599 Volume;
#X obj 720 1619 bng 15 250 50 0 empty empty empty 17 7 0 10 -262144
-1 -1;
#X floatatom 643 1681 5 0 0 0 - - -;
#X obj 707 1568 r volume2;
#X floatatom 922 1704 5 0 0 0 - - -;
#X obj 966 1633 loadbang;
#X text 956 1595 Volume;
#X obj 1068 1615 bng 15 250 50 0 empty empty empty 17 7 0 10 -262144
-1 -1;
#X floatatom 991 1677 5 0 0 0 - - -;
#X obj 1055 1564 r volume3;
#X floatatom 1307 1689 5 0 0 0 - - -;
#X obj 1340 1631 loadbang;
#X text 1330 1593 Volume;
#X obj 1442 1613 bng 15 250 50 0 empty empty empty 17 7 0 10 -262144
-1 -1;
#X floatatom 1365 1675 5 0 0 0 - - -;
#X obj 1429 1562 r volume4;
#X floatatom 1669 1706 5 0 0 0 - - -;
#X obj 1713 1635 loadbang;
#X text 1703 1597 Volume;
#X obj 1815 1617 bng 15 250 50 0 empty empty empty 17 7 0 10 -262144
-1 -1;
#X floatatom 1738 1679 5 0 0 0 - - -;
#X obj 1802 1566 r volume5;
#X text 305 1704 Must be zero;
#X text 304 1720 before playing;
#X text 646 1707 Must be zero;
#X text 645 1723 before playing;
#X text 991 1700 Must be zero;
#X text 990 1716 before playing;
#X text 1369 1700 Must be zero;
#X text 1368 1716 before playing;
#X text 1739 1703 Must be zero;
#X text 1738 1719 before playing;
#X text 313 1005 Gives tracks volume;
#X text 832 1069 Synchronizes and layer tracks;
#X text 1041 497 Test Toggle;
#X obj 1213 538 r speed;
#X floatatom 1205 574 5 0 0 0 - - -;
#X msg 1003 810 0.2 100;
#X msg 789 779 0.2 100;
#X msg 1220 819 0.2 100;
#X msg 1440 817 0.2 100;
#X floatatom 784 735 5 0 0 0 - - -;
#X floatatom 957 732 5 0 0 0 - - -;
#X floatatom 1198 749 5 0 0 0 - - -;
#X floatatom 1405 759 5 0 0 0 - - -;
#X obj 812 207 r sand;
#X obj 793 682 r hard;
#X obj 930 682 r hard;
#X obj 1203 697 r hard;
#X obj 1398 715 r hard;
#X obj 1014 612 metro 200;
#X obj 915 847 bp~ 2100 2;
#X obj 1352 855 bp~ 2100 2;
#X obj 825 272 hradio 15 1 0 3 empty empty empty 0 -8 0 10 -262144
-1 -1 1;
#X obj 796 333 bng 15 250 50 0 empty empty empty 17 7 0 10 -262144
-1 -1;
#X text 400 767 Gives tracks volume;
#X obj 817 300 select 0 1;
#X obj 853 357 bng 15 250 50 0 empty empty empty 17 7 0 10 -262144
-1 -1;
#X obj 1166 243 hradio 15 1 0 3 empty empty empty 0 -8 0 10 -262144
-1 -1 1;
#X obj 1137 304 bng 15 250 50 0 empty empty empty 17 7 0 10 -262144
-1 -1;
#X obj 1158 271 select 0 1;
#X obj 1208 329 bng 15 250 50 0 empty empty empty 17 7 0 10 -262144
-1 -1;
#X obj 1158 177 r sand2;
#X obj 894 347 bng 15 250 50 0 empty empty empty 17 7 0 10 -262144
-1 -1;
#X obj 1255 330 bng 15 250 50 0 empty empty empty 17 7 0 10 -262144
-1 -1;
#X text 1052 537 Tempo Test Buttons;
#X text 885 529 Must be unchecked;
#X text 867 544 before starting game;
#X obj 192 1762 *~ 1;
#X obj 372 1603 r volume1;
#X obj 292 1748 r deep;
#X obj 511 1745 *~ 1;
#X obj 658 1748 r deep;
#X obj 885 1759 *~ 1;
#X obj 1054 1744 r deep;
#X obj 1249 1752 *~ 1;
#X obj 1429 1738 r deep;
#X obj 1646 1751 *~ 1;
#X obj 1790 1742 r deep;
#X floatatom 245 1754 5 0 0 0 - - -;
#X floatatom 585 1758 5 0 0 0 - - -;
#X floatatom 974 1752 5 0 0 0 - - -;
#X floatatom 1323 1753 5 0 0 0 - - -;
#X floatatom 1727 1752 5 0 0 0 - - -;
#X text 109 315 sand sound;
#X obj 1454 1389 dac~;
#X obj 1462 1339 *~;
#X floatatom 1615 1314 5 0 0 0 - - -;
#X obj 1650 1266 loadbang;
#X text 1599 1251 Volume;
#X obj 1487 1124 bng 15 250 50 0 empty empty empty 17 7 0 10 -262144
-1 -1;
#X text 1386 1142 Test Button;
#X obj 1527 1318 bng 15 250 50 0 empty empty empty 17 7 0 10 -262144
-1 -1;
#X floatatom 1685 1300 5 0 0 0 - - -;
#X obj 1461 1281 readsf~;
#X obj 1519 1379 *~ 1;
#X msg 1488 1190 open waves-crunchy.wav \, 1;
#X text 1378 1164 comment;
#X floatatom 1705 637 5 0 0 0 - - -;
#X obj 1811 622 r deepest;
#X floatatom 1602 1379 5 0 0 0 - - -;
#X obj 1698 1360 r deeper;
#X text 1781 464 wave distance;
#X text 1383 674 sand texture;
#X text 1804 592 underwater;
#X text 1722 1332 underwater;
#X text 319 1770 underwater;
#X text 957 154 sand sound controller;
#X text 1212 495 sand based on speed;
#X text 1572 166 wave sound controller;
#X obj 1776 1112 hradio 15 1 0 3 empty empty empty 0 -8 0 10 -262144
-1 -1 1;
#X obj 1747 1173 bng 15 250 50 0 empty empty empty 17 7 0 10 -262144
-1 -1;
#X obj 1768 1140 select 0 1;
#X obj 1818 1198 bng 15 250 50 0 empty empty empty 17 7 0 10 -262144
-1 -1;
#X obj 1865 1199 bng 15 250 50 0 empty empty empty 17 7 0 10 -262144
-1 -1;
#X msg 1766 1238 0;
#X obj 1768 1046 r paddle;
#X text 1579 1104 Swim sounds;
#X msg 384 1675 0.2;
#X msg 1808 1245 0.3;
#X msg 704 1649 0.2;
#X msg 1052 1645 0.2;
#X msg 1426 1643 0.2;
#X msg 1799 1647 0.2;
#X obj 1631 636 *~ 0.1;
#X connect 2 0 1 0;
#X connect 3 0 4 1;
#X connect 4 0 0 0;
#X connect 4 0 0 1;
#X connect 5 0 6 0;
#X connect 6 0 3 0;
#X connect 7 0 116 0;
#X connect 8 0 41 0;
#X connect 9 0 183 0;
#X connect 10 0 11 0;
#X connect 10 0 40 0;
#X connect 11 0 10 1;
#X connect 12 0 9 0;
#X connect 14 0 15 1;
#X connect 15 0 13 0;
#X connect 15 0 13 1;
#X connect 16 0 38 0;
#X connect 17 0 184 0;
#X connect 19 0 20 1;
#X connect 20 0 18 0;
#X connect 20 0 18 1;
#X connect 21 0 22 0;
#X connect 22 0 19 0;
#X connect 23 0 117 0;
#X connect 25 0 26 1;
#X connect 26 0 24 0;
#X connect 26 0 24 1;
#X connect 27 0 39 0;
#X connect 28 0 185 0;
#X connect 30 0 31 1;
#X connect 31 0 29 0;
#X connect 31 0 29 1;
#X connect 32 0 30 0;
#X connect 33 0 35 0;
#X connect 34 0 32 0;
#X connect 34 0 37 0;
#X connect 35 0 31 0;
#X connect 36 0 30 0;
#X connect 37 0 36 0;
#X connect 38 0 14 0;
#X connect 39 0 25 0;
#X connect 40 0 8 0;
#X connect 41 0 5 0;
#X connect 41 0 171 0;
#X connect 41 1 170 0;
#X connect 41 1 16 0;
#X connect 41 2 172 0;
#X connect 41 2 21 0;
#X connect 41 3 173 0;
#X connect 41 3 27 0;
#X connect 42 0 48 0;
#X connect 42 0 49 0;
#X connect 43 0 111 0;
#X connect 44 0 45 0;
#X connect 45 0 46 0;
#X connect 46 0 43 0;
#X connect 47 0 44 0;
#X connect 48 0 57 0;
#X connect 49 0 57 1;
#X connect 50 0 112 0;
#X connect 51 0 54 0;
#X connect 52 0 47 0;
#X connect 53 0 48 1;
#X connect 54 0 49 1;
#X connect 55 0 52 0;
#X connect 56 0 58 0;
#X connect 58 0 42 0;
#X connect 59 0 58 1;
#X connect 60 0 58 2;
#X connect 61 0 59 0;
#X connect 62 0 60 0;
#X connect 62 0 61 0;
#X connect 63 0 65 0;
#X connect 65 0 68 0;
#X connect 66 0 65 0;
#X connect 70 0 69 0;
#X connect 70 0 69 1;
#X connect 71 0 201 0;
#X connect 72 0 104 0;
#X connect 74 0 77 0;
#X connect 76 0 74 0;
#X connect 76 0 80 0;
#X connect 76 0 84 0;
#X connect 76 0 88 0;
#X connect 76 0 92 0;
#X connect 76 0 223 0;
#X connect 77 0 106 0;
#X connect 79 0 78 0;
#X connect 79 0 78 1;
#X connect 80 0 94 0;
#X connect 83 0 82 0;
#X connect 83 0 82 1;
#X connect 84 0 95 0;
#X connect 87 0 86 0;
#X connect 87 0 86 1;
#X connect 88 0 96 0;
#X connect 91 0 90 0;
#X connect 91 0 90 1;
#X connect 92 0 97 0;
#X connect 94 0 105 0;
#X connect 95 0 107 0;
#X connect 96 0 108 0;
#X connect 97 0 109 0;
#X connect 98 0 77 0;
#X connect 99 0 94 0;
#X connect 100 0 95 0;
#X connect 101 0 96 0;
#X connect 102 0 97 0;
#X connect 103 0 251 0;
#X connect 104 0 71 0;
#X connect 105 0 79 0;
#X connect 105 1 99 0;
#X connect 106 0 70 0;
#X connect 106 1 98 0;
#X connect 107 0 83 0;
#X connect 107 1 100 0;
#X connect 108 0 87 0;
#X connect 108 1 101 0;
#X connect 109 0 91 0;
#X connect 109 1 102 0;
#X connect 110 0 51 0;
#X connect 110 0 53 0;
#X connect 111 0 114 0;
#X connect 112 0 110 0;
#X connect 113 0 114 1;
#X connect 114 0 257 0;
#X connect 115 0 113 0;
#X connect 116 0 4 0;
#X connect 117 0 20 0;
#X connect 118 0 119 0;
#X connect 119 0 120 0;
#X connect 120 1 121 0;
#X connect 120 2 122 0;
#X connect 120 3 123 0;
#X connect 120 4 124 0;
#X connect 120 5 125 0;
#X connect 121 0 126 0;
#X connect 122 0 127 0;
#X connect 123 0 128 0;
#X connect 124 0 129 0;
#X connect 125 0 130 0;
#X connect 131 0 204 0;
#X connect 132 0 135 0;
#X connect 134 0 253 0;
#X connect 135 0 131 0;
#X connect 136 0 134 0;
#X connect 137 0 206 0;
#X connect 138 0 141 0;
#X connect 140 0 254 0;
#X connect 141 0 137 0;
#X connect 142 0 140 0;
#X connect 143 0 208 0;
#X connect 144 0 147 0;
#X connect 146 0 255 0;
#X connect 147 0 143 0;
#X connect 148 0 146 0;
#X connect 149 0 210 0;
#X connect 150 0 153 0;
#X connect 152 0 256 0;
#X connect 153 0 149 0;
#X connect 154 0 152 0;
#X connect 168 0 169 0;
#X connect 169 0 183 1;
#X connect 170 0 14 0;
#X connect 171 0 3 0;
#X connect 172 0 19 0;
#X connect 173 0 25 0;
#X connect 174 0 116 2;
#X connect 175 0 184 2;
#X connect 176 0 117 2;
#X connect 177 0 185 2;
#X connect 178 0 186 0;
#X connect 179 0 174 0;
#X connect 180 0 175 0;
#X connect 181 0 176 0;
#X connect 182 0 177 0;
#X connect 183 0 10 0;
#X connect 184 0 15 0;
#X connect 185 0 26 0;
#X connect 186 0 189 0;
#X connect 189 0 187 0;
#X connect 189 1 190 0;
#X connect 189 2 196 0;
#X connect 190 0 12 0;
#X connect 191 0 193 0;
#X connect 193 0 192 0;
#X connect 193 1 194 0;
#X connect 193 2 197 0;
#X connect 194 0 12 0;
#X connect 195 0 191 0;
#X connect 201 0 70 1;
#X connect 202 0 103 0;
#X connect 203 0 212 0;
#X connect 204 0 79 1;
#X connect 205 0 213 0;
#X connect 206 0 83 1;
#X connect 207 0 214 0;
#X connect 208 0 87 1;
#X connect 209 0 215 0;
#X connect 210 0 91 1;
#X connect 211 0 216 0;
#X connect 212 0 201 1;
#X connect 213 0 204 1;
#X connect 214 0 206 1;
#X connect 215 0 208 1;
#X connect 216 0 210 1;
#X connect 219 0 218 0;
#X connect 219 0 218 1;
#X connect 220 0 228 0;
#X connect 221 0 226 0;
#X connect 223 0 229 0;
#X connect 225 0 229 0;
#X connect 226 0 220 0;
#X connect 227 0 219 0;
#X connect 227 1 225 0;
#X connect 228 0 219 1;
#X connect 229 0 227 0;
#X connect 231 0 257 1;
#X connect 232 0 231 0;
#X connect 233 0 228 1;
#X connect 234 0 233 0;
#X connect 243 0 245 0;
#X connect 245 0 244 0;
#X connect 245 1 246 0;
#X connect 245 2 247 0;
#X connect 246 0 248 0;
#X connect 247 0 252 0;
#X connect 248 0 226 0;
#X connect 249 0 243 0;
#X connect 251 0 104 0;
#X connect 252 0 226 0;
#X connect 253 0 135 0;
#X connect 254 0 141 0;
#X connect 255 0 147 0;
#X connect 256 0 153 0;
#X connect 257 0 42 1;
